# xmcd
#
# Track frame offsets:
#	150
#	13233
#	25069
#	43133
#	55480
#	76971
#	98022
#	114518
#	130663
#	142802
#	162014
#	176342
#	192960
#
# Disc length: 2805 seconds
#
# Revision: 1
# Processed by: cddbd v1.5.1PL0 Copyright (c) Steve Scherf et al.
# Submitted via: audiograbber 1.83.01
#
DISCID=9f0af30d
DTITLE=Garth Brooks - Double Live 1
DYEAR=1900
DGENRE=Country
TTITLE0=Callin' Baton Rouge
TTITLE1=Two Of A Kind, Working On A Full House
TTITLE2=Shameless
TTITLE3=Papa Loved Mama
TTITLE4=The Thunder Rolls
TTITLE5=We Shall Be Free
TTITLE6=Unanswered Prayers
TTITLE7=Standing Outside The Fire
TTITLE8=Longneck Bottle
TTITLE9=It's Your Song
TTITLE10=Much Too Young
TTITLE11=The River
TTITLE12=Tearing It Up And Burning It Down
EXTD=
EXTT0=
EXTT1=
EXTT2=
EXTT3=
EXTT4=
EXTT5=
EXTT6=
EXTT7=
EXTT8=
EXTT9=
EXTT10=
EXTT11=
EXTT12=
PLAYORDER=
